<svg xmlns="http://www.w3.org/2000/svg" width="30.526" height="20" viewBox="0 0 30.526 20">
  <g id="panama" transform="translate(0 -88.275)">
    <g id="Grupo_1" data-name="Grupo 1" transform="translate(0 88.275)">
      <path id="Caminho_1" data-name="Caminho 1" d="M262.435,247.7H247.7v9.474a.526.526,0,0,1-.526.526h13.5a2.286,2.286,0,0,0,2.286-2.286v-8.24A.526.526,0,0,1,262.435,247.7Z" transform="translate(-232.435 -237.698)" fill="#f5f5f5"/>
      <path id="Caminho_2" data-name="Caminho 2" d="M.526,98.275H15.263V88.8a.526.526,0,0,1,.526-.526H2.286A2.286,2.286,0,0,0,0,90.561V98.8A.526.526,0,0,1,.526,98.275Z" transform="translate(0 -88.275)" fill="#f5f5f5"/>
    </g>
    <path id="Caminho_3" data-name="Caminho 3" d="M268.977,88.276H256.526A.526.526,0,0,0,256,88.8v9.474h14.737a.526.526,0,0,0,.526-.526V90.562A2.286,2.286,0,0,0,268.977,88.276Z" transform="translate(-240.737 -0.001)" fill="#ff4b55"/>
    <g id="Grupo_2" data-name="Grupo 2" transform="translate(0 90.884)">
      <path id="Caminho_4" data-name="Caminho 4" d="M15.263,265.474V256H.526a.526.526,0,0,0-.526.526v7.188A2.286,2.286,0,0,0,2.286,266H14.737A.526.526,0,0,0,15.263,265.474Z" transform="translate(0 -248.609)" fill="#4173cd"/>
      <path id="Caminho_5" data-name="Caminho 5" d="M88.726,132.184l.5,1.5,1.586.012a.214.214,0,0,1,.125.386l-1.276.942.478,1.512a.214.214,0,0,1-.328.238l-1.29-.922-1.29.922a.214.214,0,0,1-.328-.238l.478-1.512-1.276-.942a.214.214,0,0,1,.125-.386l1.586-.012.5-1.5A.214.214,0,0,1,88.726,132.184Z" transform="translate(-80.891 -132.038)" fill="#4173cd"/>
    </g>
    <path id="Caminho_6" data-name="Caminho 6" d="M344.726,299.907l.5,1.5,1.586.012a.214.214,0,0,1,.125.386l-1.276.942.478,1.512a.214.214,0,0,1-.328.238l-1.29-.922-1.29.922a.214.214,0,0,1-.328-.238l.478-1.512-1.276-.942a.214.214,0,0,1,.125-.386l1.586-.012.5-1.5A.214.214,0,0,1,344.726,299.907Z" transform="translate(-321.628 -198.877)" fill="#ff4b55"/>
  </g>
</svg>
